<svg version="1.2" xmlns="http://www.w3.org/2000/svg" viewBox="0 0 1533 1239" width="1533" height="1239">
	<title>Dr</title>
	<style>
		.s0 { fill: #ffffff } 
	</style>
	<g id="layer1">
		<g id="g7902">
			<path id="path5645" fill-rule="evenodd" class="s0" d="m693.5 1238.3c-7.7 0-14.7-2.6-20.5-6.8-167.4-146.4-514.1-474.9-598.5-598.8-68.7-100.9-89.9-220.9-62.4-320.8 42.3-164.1 200.9-285.7 406.2-274.8 41.5 2.3 81.3 12.6 118.3 28.6 111.2 50.4 189.2 161.2 192.2 290.7v847c-0.3 19.3-15.9 34.9-35.3 34.9zm-99.1-486.1c-34.4 0-62.2 27.9-62.2 62.3 0 34.3 27.8 62.3 62.2 62.3 34.3 0 62.1-28 62.1-62.3 0-34.4-27.8-62.3-62.1-62.3zm394.2 321.8c-85.4 0-154.5-69.1-154.5-154.5 0-85.5 69.1-154.5 154.5-154.5 85.4 0 154.5 69 154.5 154.5 0 85.4-69.1 154.5-154.5 154.5zm-101.2 95c0 29.5-23.8 53.3-53.2 53.3-29.5 0-53.4-23.8-53.4-53.3 0-29.5 23.9-53.4 53.4-53.4 29.4 0 53.2 23.9 53.2 53.4zm395.2-369.2c-113.4 0-205.1-91.8-205.1-205.4 0-113.5 91.7-205.3 205.1-205.3 113.5 0 205.2 91.8 205.2 205.3 0 113.6-91.7 205.4-205.2 205.4zm250.4-555.9c0 59.5-48.3 107.8-107.7 107.8-59.4 0-107.7-48.3-107.7-107.8 0-59.6 48.3-107.8 107.7-107.8 59.4 0 107.7 48.2 107.7 107.8zm-519.3 151.1c-109 0-197.1-88.1-197.1-197.2 0-109 88.1-197.2 197.1-197.2 109 0 197.1 88.2 197.1 197.2 0 109.1-88.1 197.2-197.1 197.2zm7.4 173.6c0 64.7-52.5 117.2-117.1 117.2-64.7 0-117.1-52.5-117.1-117.2 0-64.8 52.4-117.3 117.1-117.3 64.6 0 117.1 52.5 117.1 117.3z"/>
		</g>
	</g>
</svg>