<!DOCTYPE svg PUBLIC "-//W3C//DTD SVG 1.1//EN" "http://www.w3.org/Graphics/SVG/1.1/DTD/svg11.dtd">
<!-- Uploaded to: SVG Repo, www.svgrepo.com, Transformed by: SVG Repo Mixer Tools -->
<svg fill="#fff" version="1.1" id="Capa_1" xmlns="http://www.w3.org/2000/svg" xmlns:xlink="http://www.w3.org/1999/xlink" width="800px" height="800px" viewBox="0 0 931.543 931.543" xml:space="preserve" stroke="#fff">
<g id="SVGRepo_bgCarrier" stroke-width="0"/>
<g id="SVGRepo_tracerCarrier" stroke-linecap="round" stroke-linejoin="round"/>
<g id="SVGRepo_iconCarrier"> <g> <g> <g> <path d="M162.182,931.543h50c22.091,0,40-17.909,40-40v-176.57c0-91.903,75.193-166.07,167.098-166.289 c39.726-0.094,78.297-7.938,114.654-23.315c35.299-14.931,66.987-36.291,94.187-63.488 c27.195-27.197,48.558-58.887,63.485-94.185c15.475-36.58,23.317-75.399,23.317-115.381v-56.748h59.296 c22,0,33.836-25.835,19.47-42.496L669.393,8.92c-10.255-11.893-28.684-11.893-38.938,0L506.156,153.07 c-14.364,16.661-2.528,42.496,19.472,42.496h59.295v56.83c0,91.905-75.193,166.071-167.099,166.289 c-39.725,0.095-78.296,7.938-114.653,23.317c-35.299,14.93-66.987,36.29-94.186,63.486 c-27.197,27.196-48.558,58.887-63.488,94.186c-15.472,36.58-23.316,75.398-23.316,115.381v176.488 C122.182,913.634,140.091,931.543,162.182,931.543z"/> <path d="M76.633,295.779l33.94,33.941c12.106,12.106,31.734,12.106,43.841,0l59.189-59.188l59.189,59.188 c12.107,12.106,31.734,12.106,43.841,0l33.939-33.941c12.106-12.106,12.106-31.734,0-43.841l-59.188-59.188l59.189-59.19 c12.106-12.106,12.106-31.734,0-43.841l-33.939-33.94c-12.107-12.106-31.734-12.106-43.841,0l-59.19,59.189l-59.189-59.189 c-12.106-12.106-31.734-12.106-43.841,0l-33.94,33.94c-12.106,12.106-12.106,31.734,0,43.841l59.189,59.189l-59.189,59.188 C64.526,264.045,64.526,283.673,76.633,295.779z"/> <path d="M688.99,920.281c96.495,0,175-78.506,175-175c0-96.495-78.505-175-175-175c-96.493,0-175,78.505-175,175 C513.99,841.775,592.496,920.281,688.99,920.281z M688.99,680.281c35.843,0,65,29.158,65,65c0,35.841-29.157,65-65,65 c-35.841,0-65-29.159-65-65C623.99,709.439,653.149,680.281,688.99,680.281z"/> </g> </g> </g> </g>
</svg>